<svg width="186" height="233" viewBox="0 0 186 233" fill="none" xmlns="http://www.w3.org/2000/svg">
<path d="M32.4679 214.149L20.5144 69H165.486L153.532 214.149C152.934 221.411 146.866 227 139.579 227H46.4206C39.1342 227 33.0659 221.411 32.4679 214.149Z" stroke="black" stroke-width="12"/>
<path d="M75 6H111C116.523 6 121 10.4772 121 16V30H65V16C65 10.4772 69.4772 6 75 6Z" stroke="black" stroke-width="12"/>
<mask id="path-3-inside-1_0_1" fill="white">
<path d="M0 44C0 32.9543 8.95431 24 20 24H166C177.046 24 186 32.9543 186 44V71C186 73.2091 184.209 75 182 75H4C1.79086 75 0 73.2091 0 71V44Z"/>
</mask>
<path d="M0 44C0 32.9543 8.95431 24 20 24H166C177.046 24 186 32.9543 186 44V71C186 73.2091 184.209 75 182 75H4C1.79086 75 0 73.2091 0 71V44Z" stroke="black" stroke-width="24" mask="url(#path-3-inside-1_0_1)"/>
</svg>
