<svg width="186" height="233" viewBox="0 0 186 233" fill="none" xmlns="http://www.w3.org/2000/svg">
<rect width="186" height="233" fill="#1E1E1E"/>
<path d="M19 64H167V213C167 221.284 160.284 228 152 228H34C25.7157 228 19 221.284 19 213V64Z" stroke="black" stroke-width="10"/>
<path d="M75 5H111C117.075 5 122 9.92487 122 16V31H64V16C64 9.92487 68.9249 5 75 5Z" stroke="black" stroke-width="10"/>
<mask id="path-3-inside-1_0_1" fill="white">
<path d="M0 46C0 34.9543 8.95431 26 20 26H166C177.046 26 186 34.9543 186 46V65C186 67.2091 184.209 69 182 69H4C1.79086 69 0 67.2091 0 65V46Z"/>
</mask>
<path d="M0 46C0 34.9543 8.95431 26 20 26H166C177.046 26 186 34.9543 186 46V65C186 67.2091 184.209 69 182 69H4C1.79086 69 0 67.2091 0 65V46Z" stroke="black" stroke-width="20" mask="url(#path-3-inside-1_0_1)"/>
<rect x="42" y="88" width="10" height="118" rx="5" fill="black"/>
<rect x="73" y="88" width="10" height="118" rx="5" fill="black"/>
<rect x="103" y="88" width="10" height="118" rx="5" fill="black"/>
<rect x="134" y="88" width="10" height="118" rx="5" fill="black"/>
</svg>
