<svg width="186" height="233" viewBox="0 0 186 233" fill="none" xmlns="http://www.w3.org/2000/svg">
<rect width="186" height="233" fill="#1E1E1E"/>
<path d="M30.4746 214.313L18.343 67H167.657L155.525 214.313C154.842 222.613 147.907 229 139.579 229H46.4206C38.0932 229 31.1581 222.613 30.4746 214.313Z" stroke="black" stroke-width="8"/>
<path d="M75 4H111C117.627 4 123 9.37258 123 16V28H63V16C63 9.37258 68.3726 4 75 4Z" stroke="black" stroke-width="8"/>
<mask id="path-3-inside-1_0_1" fill="white">
<path d="M0 44C0 32.9543 8.95431 24 20 24H166C177.046 24 186 32.9543 186 44V67C186 69.2091 184.209 71 182 71H4C1.79086 71 0 69.2091 0 67V44Z"/>
</mask>
<path d="M0 44C0 32.9543 8.95431 24 20 24H166C177.046 24 186 32.9543 186 44V67C186 69.2091 184.209 71 182 71H4C1.79086 71 0 69.2091 0 67V44Z" stroke="black" stroke-width="16" mask="url(#path-3-inside-1_0_1)"/>
</svg>
